<svg width="48" height="48" viewBox="0 0 48 48" fill="none" xmlns="http://www.w3.org/2000/svg">
<rect width="48" height="48" rx="8" fill="#603AE5" fill-opacity="0.1"/>
<path d="M27.0775 30.1538V30.9231C27.0775 31.7391 26.7533 32.5218 26.1763 33.0988C25.5992 33.6758 24.8166 34 24.0005 34C23.1845 34 22.4019 33.6758 21.8248 33.0988C21.2478 32.5218 20.9236 31.7391 20.9236 30.9231V30.1538M32.2544 28.588C31.0198 27.0769 30.1481 26.3077 30.1481 22.1418C30.1481 18.3269 28.2001 16.9678 26.5967 16.3077C26.3837 16.2202 26.1832 16.0192 26.1183 15.8005C25.8371 14.8433 25.0486 14 24.0005 14C22.9525 14 22.1635 14.8438 21.8852 15.8014C21.8202 16.0226 21.6198 16.2202 21.4068 16.3077C19.8015 16.9688 17.8553 18.3231 17.8553 22.1418C17.8529 26.3077 16.9813 27.0769 15.7467 28.588C15.2352 29.2139 15.6832 30.1538 16.5779 30.1538H31.4279C32.3178 30.1538 32.763 29.2111 32.2544 28.588Z" stroke="#603AE5" stroke-width="1.5" stroke-linecap="round" stroke-linejoin="round"/>
</svg>
