<svg width="48" height="48" viewBox="0 0 48 48" fill="none" xmlns="http://www.w3.org/2000/svg">
<rect width="48" height="48" rx="8" fill="#603AE5" fill-opacity="0.1"/>
<path d="M28.8125 19.1875C28.8125 20.4639 28.3055 21.6879 27.403 22.5905C26.5004 23.493 25.2764 24 24 24C22.7236 24 21.4996 23.493 20.597 22.5905C19.6945 21.6879 19.1875 20.4639 19.1875 19.1875C19.1875 17.9111 19.6945 16.6871 20.597 15.7845C21.4996 14.882 22.7236 14.375 24 14.375C25.2764 14.375 26.5004 14.882 27.403 15.7845C28.3055 16.6871 28.8125 17.9111 28.8125 19.1875ZM27.4375 19.1875C27.4375 18.2758 27.0753 17.4015 26.4307 16.7568C25.786 16.1122 24.9117 15.75 24 15.75C23.0883 15.75 22.214 16.1122 21.5693 16.7568C20.9247 17.4015 20.5625 18.2758 20.5625 19.1875C20.5625 20.0992 20.9247 20.9735 21.5693 21.6182C22.214 22.2628 23.0883 22.625 24 22.625C24.9117 22.625 25.786 22.2628 26.4307 21.6182C27.0753 20.9735 27.4375 20.0992 27.4375 19.1875ZM18.1562 25.375C17.5181 25.375 16.906 25.6285 16.4548 26.0798C16.0035 26.531 15.75 27.1431 15.75 27.7812V28.125C15.75 29.7702 16.7971 31.1617 18.2834 32.1077C19.7781 33.0592 21.8014 33.625 24 33.625C26.1986 33.625 28.2213 33.0592 29.7166 32.1077C31.2029 31.1617 32.25 29.7702 32.25 28.125V27.7812C32.25 27.1431 31.9965 26.531 31.5452 26.0798C31.094 25.6285 30.4819 25.375 29.8438 25.375H18.1562ZM17.125 27.7812C17.125 27.5077 17.2336 27.2454 17.427 27.052C17.6204 26.8587 17.8827 26.75 18.1562 26.75H29.8438C30.1173 26.75 30.3796 26.8587 30.573 27.052C30.7663 27.2454 30.875 27.5077 30.875 27.7812V28.125C30.875 29.1377 30.2287 30.1524 28.9782 30.9479C27.7359 31.7385 25.9779 32.25 24 32.25C22.0221 32.25 20.2641 31.7385 19.0218 30.9479C17.7706 30.1531 17.125 29.137 17.125 28.125V27.7812Z" fill="#603AE5"/>
</svg>
