<svg width="48" height="48" viewBox="0 0 48 48" fill="none" xmlns="http://www.w3.org/2000/svg">
<rect width="48" height="48" rx="8" fill="#603AE5" fill-opacity="0.1"/>
<path d="M25.9141 17.0807C26.9714 17.0807 27.9497 17.3481 28.849 17.8828C29.7361 18.3932 30.4349 19.092 30.9453 19.9792C31.48 20.8785 31.7474 21.8568 31.7474 22.9141C31.7474 23.9714 31.48 24.9497 30.9453 25.849C30.4349 26.7361 29.7361 27.4349 28.849 27.9453C27.9497 28.48 26.9714 28.7474 25.9141 28.7474C25.2214 28.7474 24.559 28.6319 23.9271 28.401C23.3073 28.1701 22.7422 27.8481 22.2318 27.4349L17.5833 32.0833L16.7448 31.2448L21.3932 26.5964C20.98 26.0859 20.658 25.5208 20.4271 24.901C20.1962 24.2691 20.0807 23.6068 20.0807 22.9141C20.0807 21.8568 20.3481 20.8785 20.8828 19.9792C21.3932 19.092 22.092 18.3932 22.9792 17.8828C23.8785 17.3481 24.8568 17.0807 25.9141 17.0807ZM25.9141 18.2474C25.0634 18.2474 24.2795 18.4601 23.5625 18.8854C22.8576 19.2986 22.2925 19.8637 21.8672 20.5807C21.454 21.2856 21.2474 22.0634 21.2474 22.9141C21.2474 23.7648 21.454 24.5486 21.8672 25.2656C22.2925 25.9705 22.8576 26.5356 23.5625 26.9609C24.2795 27.3741 25.0634 27.5807 25.9141 27.5807C26.7648 27.5807 27.5425 27.3741 28.2474 26.9609C28.9644 26.5356 29.5295 25.9705 29.9427 25.2656C30.3681 24.5486 30.5807 23.7648 30.5807 22.9141C30.5807 22.0634 30.3681 21.2856 29.9427 20.5807C29.5295 19.8637 28.9644 19.2986 28.2474 18.8854C27.5425 18.4601 26.7648 18.2474 25.9141 18.2474Z" fill="#603AE5"/>
</svg>
