<svg width="48" height="48" viewBox="0 0 48 48" fill="none" xmlns="http://www.w3.org/2000/svg">
<rect width="48" height="48" rx="8" fill="#603AE5" fill-opacity="0.1"/>
<path fill-rule="evenodd" clip-rule="evenodd" d="M24 20.25C23.0054 20.25 22.0516 20.6451 21.3483 21.3483C20.6451 22.0516 20.25 23.0054 20.25 24C20.25 24.9946 20.6451 25.9484 21.3483 26.6517C22.0516 27.3549 23.0054 27.75 24 27.75C24.9946 27.75 25.9484 27.3549 26.6517 26.6517C27.3549 25.9484 27.75 24.9946 27.75 24C27.75 23.0054 27.3549 22.0516 26.6517 21.3483C25.9484 20.6451 24.9946 20.25 24 20.25ZM21.75 24C21.75 23.4033 21.9871 22.831 22.409 22.409C22.831 21.9871 23.4033 21.75 24 21.75C24.5967 21.75 25.169 21.9871 25.591 22.409C26.0129 22.831 26.25 23.4033 26.25 24C26.25 24.5967 26.0129 25.169 25.591 25.591C25.169 26.0129 24.5967 26.25 24 26.25C23.4033 26.25 22.831 26.0129 22.409 25.591C21.9871 25.169 21.75 24.5967 21.75 24Z" fill="#603AE5"/>
<path fill-rule="evenodd" clip-rule="evenodd" d="M23.975 13.25C23.53 13.25 23.159 13.25 22.855 13.27C22.5443 13.2829 22.2378 13.3471 21.948 13.46C21.6143 13.5981 21.311 13.8006 21.0555 14.0559C20.8 14.3112 20.5973 14.6143 20.459 14.948C20.314 15.298 20.275 15.668 20.259 16.07C20.2574 16.217 20.2185 16.3612 20.1459 16.4891C20.0733 16.6169 19.9694 16.7243 19.844 16.801C19.7149 16.8715 19.57 16.908 19.4229 16.9072C19.2758 16.9063 19.1313 16.868 19.003 16.796C18.647 16.608 18.307 16.457 17.931 16.407C17.573 16.3599 17.2091 16.3838 16.8603 16.4773C16.5115 16.5708 16.1845 16.7321 15.898 16.952C15.6558 17.1469 15.4473 17.3803 15.281 17.643C15.111 17.897 14.925 18.218 14.703 18.603L14.678 18.647C14.455 19.032 14.27 19.353 14.136 19.627C13.996 19.913 13.886 20.195 13.846 20.507C13.7506 21.23 13.9463 21.9613 14.39 22.54C14.621 22.841 14.922 23.06 15.262 23.274C15.3888 23.3489 15.4944 23.4549 15.5689 23.5819C15.6434 23.7089 15.6844 23.8528 15.688 24C15.6844 24.1472 15.6434 24.2911 15.5689 24.4181C15.4944 24.5451 15.3888 24.6511 15.262 24.726C14.922 24.94 14.622 25.159 14.39 25.46C14.1701 25.7465 14.0088 26.0735 13.9153 26.4223C13.8218 26.7711 13.7979 27.1349 13.845 27.493C13.886 27.805 13.995 28.087 14.135 28.373C14.27 28.647 14.455 28.968 14.678 29.353L14.703 29.397C14.925 29.782 15.111 30.103 15.281 30.357C15.458 30.62 15.648 30.857 15.898 31.047C16.1844 31.2671 16.5114 31.4285 16.8602 31.5222C17.209 31.6159 17.5729 31.64 17.931 31.593C18.307 31.543 18.647 31.393 19.003 31.204C19.1311 31.1321 19.2754 31.0939 19.4224 31.093C19.5693 31.0921 19.7141 31.1286 19.843 31.199C19.9691 31.2751 20.0737 31.3823 20.1467 31.5102C20.2197 31.6382 20.2587 31.7827 20.26 31.93C20.275 32.332 20.314 32.702 20.46 33.052C20.5981 33.3857 20.8006 33.689 21.0559 33.9445C21.3112 34.2 21.6144 34.4027 21.948 34.541C22.238 34.661 22.538 34.708 22.855 34.729C23.159 34.75 23.53 34.75 23.975 34.75H24.025C24.47 34.75 24.841 34.75 25.145 34.73C25.463 34.708 25.762 34.661 26.052 34.54C26.3858 34.4019 26.689 34.1994 26.9445 33.9441C27.2 33.6888 27.4027 33.3857 27.541 33.052C27.686 32.702 27.725 32.332 27.741 31.93C27.7425 31.7828 27.7813 31.6384 27.8539 31.5103C27.9265 31.3823 28.0305 31.2748 28.156 31.198C28.2852 31.1276 28.4302 31.0913 28.5773 31.0923C28.7244 31.0934 28.8688 31.1318 28.997 31.204C29.353 31.392 29.693 31.543 30.069 31.592C30.792 31.6874 31.5233 31.4917 32.102 31.048C32.352 30.856 32.542 30.62 32.719 30.357C32.889 30.103 33.075 29.782 33.297 29.397L33.322 29.353C33.545 28.968 33.73 28.647 33.864 28.373C34.004 28.087 34.114 27.804 34.154 27.493C34.2494 26.77 34.0537 26.0387 33.61 25.46C33.379 25.159 33.078 24.94 32.738 24.726C32.6113 24.6511 32.5056 24.5451 32.4311 24.4181C32.3566 24.2911 32.3156 24.1472 32.312 24C32.312 23.722 32.464 23.446 32.738 23.274C33.078 23.06 33.378 22.841 33.61 22.54C33.8299 22.2535 33.9912 21.9265 34.0847 21.5777C34.1782 21.2289 34.2021 20.8651 34.155 20.507C34.1074 20.1997 34.0094 19.9024 33.865 19.627C33.6943 19.2947 33.5132 18.9679 33.322 18.647L33.297 18.603C33.1143 18.2771 32.9216 17.9569 32.719 17.643C32.5527 17.3806 32.3442 17.1475 32.102 16.953C31.8156 16.7329 31.4887 16.5715 31.1398 16.4778C30.791 16.3841 30.4271 16.36 30.069 16.407C29.693 16.457 29.353 16.607 28.997 16.796C28.8689 16.8679 28.7246 16.906 28.5777 16.9069C28.4307 16.9078 28.286 16.8713 28.157 16.801C28.0312 16.7245 27.9269 16.6173 27.854 16.4894C27.7811 16.3615 27.7418 16.2172 27.74 16.07C27.725 15.668 27.686 15.298 27.54 14.948C27.4019 14.6142 27.1994 14.311 26.9441 14.0555C26.6888 13.8 26.3857 13.5973 26.052 13.459C25.762 13.339 25.462 13.292 25.145 13.271C24.841 13.25 24.47 13.25 24.025 13.25H23.975ZM22.522 14.845C22.599 14.813 22.716 14.784 22.957 14.767C23.204 14.75 23.524 14.75 24 14.75C24.476 14.75 24.796 14.75 25.043 14.767C25.284 14.784 25.401 14.813 25.478 14.845C25.785 14.972 26.028 15.215 26.155 15.522C26.195 15.618 26.228 15.769 26.241 16.126C26.271 16.918 26.68 17.681 27.406 18.1C28.132 18.52 28.997 18.492 29.698 18.122C30.014 17.955 30.161 17.908 30.265 17.895C30.5936 17.8516 30.9259 17.9404 31.189 18.142C31.255 18.193 31.339 18.28 31.474 18.48C31.613 18.686 31.773 18.963 32.011 19.375C32.249 19.787 32.408 20.065 32.517 20.287C32.624 20.504 32.657 20.62 32.667 20.703C32.7104 21.0316 32.6216 21.3639 32.42 21.627C32.356 21.71 32.242 21.814 31.94 22.004C31.268 22.426 30.812 23.162 30.812 24C30.812 24.838 31.268 25.574 31.94 25.996C32.242 26.186 32.356 26.29 32.42 26.373C32.622 26.636 32.71 26.968 32.667 27.297C32.657 27.38 32.623 27.497 32.517 27.713C32.408 27.936 32.249 28.213 32.011 28.625C31.773 29.037 31.612 29.314 31.474 29.52C31.339 29.72 31.255 29.807 31.189 29.858C30.9259 30.0596 30.5936 30.1484 30.265 30.105C30.161 30.092 30.015 30.045 29.698 29.878C28.998 29.508 28.132 29.48 27.406 29.899C26.68 30.319 26.271 31.082 26.241 31.874C26.228 32.231 26.195 32.382 26.155 32.478C26.0922 32.6298 26.0001 32.7677 25.8839 32.8839C25.7677 33.0001 25.6298 33.0922 25.478 33.155C25.401 33.187 25.284 33.216 25.043 33.233C24.796 33.25 24.476 33.25 24 33.25C23.524 33.25 23.204 33.25 22.957 33.233C22.716 33.216 22.599 33.187 22.522 33.155C22.3702 33.0922 22.2323 33.0001 22.1161 32.8839C22 32.7677 21.9078 32.6298 21.845 32.478C21.805 32.382 21.772 32.231 21.759 31.874C21.729 31.082 21.32 30.319 20.594 29.9C19.868 29.48 19.003 29.508 18.302 29.878C17.986 30.045 17.839 30.092 17.735 30.105C17.4065 30.1484 17.0741 30.0596 16.811 29.858C16.745 29.807 16.661 29.72 16.526 29.52C16.3379 29.2272 16.1588 28.9287 15.989 28.625C15.751 28.213 15.592 27.935 15.483 27.713C15.376 27.496 15.343 27.38 15.333 27.297C15.2896 26.9684 15.3784 26.6361 15.58 26.373C15.644 26.29 15.758 26.186 16.06 25.996C16.732 25.574 17.188 24.838 17.188 24C17.188 23.162 16.732 22.426 16.06 22.004C15.758 21.814 15.644 21.71 15.58 21.627C15.3784 21.3639 15.2896 21.0316 15.333 20.703C15.343 20.62 15.377 20.503 15.483 20.287C15.592 20.064 15.751 19.787 15.989 19.375C16.227 18.963 16.388 18.686 16.526 18.48C16.661 18.28 16.745 18.193 16.811 18.142C17.0741 17.9404 17.4065 17.8516 17.735 17.895C17.839 17.908 17.985 17.955 18.302 18.122C19.002 18.492 19.868 18.52 20.594 18.1C21.32 17.681 21.729 16.918 21.759 16.126C21.772 15.769 21.805 15.618 21.845 15.522C21.972 15.215 22.215 14.972 22.522 14.845Z" fill="#603AE5"/>
</svg>
