<svg xmlns="http://www.w3.org/2000/svg"  viewBox="0 0 48 48" width="48px" height="48px"><linearGradient id="SVGID_1_" x1="35.359" x2="12.641" y1="16.53" y2="39.248" gradientUnits="userSpaceOnUse"><stop offset="0" stop-color="#60affe"/><stop offset=".033" stop-color="#6ab4fe"/><stop offset=".197" stop-color="#97cbfe"/><stop offset=".362" stop-color="#bddeff"/><stop offset=".525" stop-color="#daecff"/><stop offset=".687" stop-color="#eef7ff"/><stop offset=".846" stop-color="#fbfdff"/><stop offset="1" stop-color="#fff"/></linearGradient><path fill="url(#SVGID_1_)" d="M36,20.5h-1.577c0.01-0.183,0.028-0.364,0.028-0.549C34.451,14.179,29.772,9.5,24,9.5	s-10.451,4.679-10.451,10.451c0,0.185,0.018,0.366,0.028,0.549H12c-4.142,0-7.5,3.358-7.5,7.5s3.358,7.5,7.5,7.5h24	c4.142,0,7.5-3.358,7.5-7.5S40.142,20.5,36,20.5z"/><polyline fill="none" stroke="#2e9bfe" stroke-linecap="round" stroke-linejoin="round" stroke-miterlimit="10" stroke-width="3" points="28.5,29.75 24,25.25 19.5,29.75"/><line x1="24" x2="24" y1="40.25" y2="25.25" fill="none" stroke="#2e9bfe" stroke-linecap="round" stroke-linejoin="round" stroke-miterlimit="10" stroke-width="3"/><path fill="none" stroke="#2e9bfe" stroke-linecap="round" stroke-linejoin="round" stroke-miterlimit="10" stroke-width="3" d="M32.448,13.763C30.535,11.177,27.464,9.5,24,9.5c-5.799,0-10.5,4.701-10.5,10.5v0.5H12	c-4.142,0-7.5,3.358-7.5,7.5s3.358,7.5,7.5,7.5h2.097"/><path fill="none" stroke="#2e9bfe" stroke-linecap="round" stroke-linejoin="round" stroke-miterlimit="10" stroke-width="3" d="M33.544,35.5H36c4.142,0,7.5-3.358,7.5-7.5s-3.358-7.5-7.5-7.5h-1.5"/></svg>